<?xml version="1.0" standalone="no"?>
<!DOCTYPE svg PUBLIC "-//W3C//DTD SVG 20010904//EN"
 "http://www.w3.org/TR/2001/REC-SVG-20010904/DTD/svg10.dtd">
<svg version="1.0" xmlns="http://www.w3.org/2000/svg"
 width="1212.000000pt" height="1212.000000pt" viewBox="0 0 1212.000000 1212.000000"
 preserveAspectRatio="xMidYMid meet">
<metadata>
Created by potrace 1.14, written by Peter Selinger 2001-2017
</metadata>
<g transform="translate(0.000000,1212.000000) scale(0.100000,-0.100000)"
fill="#000000" stroke="none">
<path d="M5580 12109 c-14 -5 -34 -22 -45 -37 -17 -24 -20 -45 -22 -186 -1
-88 -6 -163 -10 -167 -4 -4 -51 -24 -103 -44 -52 -20 -104 -40 -115 -45 -11
-5 -74 -30 -140 -56 -66 -25 -183 -71 -260 -101 -77 -30 -221 -87 -320 -126
-418 -164 -458 -181 -479 -210 -21 -28 -21 -32 -22 -985 -1 -526 0 -971 3
-989 4 -25 119 -145 624 -654 340 -343 619 -627 619 -631 0 -4 4 -8 9 -8 4 0
50 -42 100 -92 l93 -93 2 -2585 c2 -1422 6 -2596 9 -2610 2 -14 7 -41 11 -60
3 -19 10 -60 16 -90 6 -30 14 -66 16 -79 3 -14 8 -29 12 -35 3 -6 7 -17 8 -25
6 -38 114 -267 133 -281 4 -3 14 -15 22 -27 8 -12 37 -47 63 -78 51 -58 90
-85 126 -85 14 0 20 -7 21 -22 0 -13 0 -385 1 -827 0 -716 2 -808 16 -830 26
-43 43 -51 109 -51 67 0 94 15 112 63 5 12 8 105 7 207 -1 102 2 195 6 208 4
12 4 22 0 22 -9 0 -7 293 2 309 4 6 4 11 -1 11 -6 0 -9 782 -4 891 1 11 14 18
38 22 29 5 50 20 94 66 31 33 71 82 88 108 17 26 35 54 41 61 28 32 120 263
134 334 2 13 7 34 10 48 5 24 13 68 22 135 2 17 6 92 9 168 2 77 6 141 8 143
3 3 1 20 -3 39 -4 19 -5 36 -2 39 3 3 4 30 3 58 -6 128 -6 178 0 178 3 0 5 10
2 23 -6 35 -9 217 -3 217 3 0 4 24 2 52 -6 124 -7 188 -2 188 3 0 4 21 3 47
-3 50 -4 197 -2 210 1 5 0 13 -1 18 -2 10 -1 128 1 143 1 4 1 12 0 17 -5 25
-5 285 -1 285 3 0 4 24 2 52 -6 124 -7 188 -2 188 3 0 4 21 3 47 -3 50 -4 197
-2 210 1 5 0 13 -1 18 -2 10 -1 128 1 143 1 4 1 12 0 17 -5 25 -5 285 -1 285
3 0 4 24 2 52 -6 124 -7 188 -2 188 3 0 4 21 2 47 -4 92 -3 294 3 303 4 6 3
10 -2 10 -4 0 -8 27 -8 60 0 33 3 60 6 60 4 0 3 18 -1 39 -4 22 -4 45 0 51 4
6 5 28 3 48 -7 61 -8 182 -2 182 3 0 3 17 0 37 -3 20 -4 65 -1 100 3 35 3 63
0 63 -3 0 -5 27 -5 60 0 33 3 60 6 60 4 0 3 18 -1 39 -4 22 -4 45 0 51 4 6 5
28 3 48 -7 61 -8 182 -2 182 3 0 3 17 0 37 -3 20 -4 65 -1 100 3 35 3 63 0 63
-3 0 -5 27 -5 60 0 33 3 60 6 60 4 0 3 18 -1 39 -4 22 -4 45 0 51 4 6 5 28 3
48 -8 64 -8 182 -1 182 3 0 3 12 -1 26 -20 76 -29 65 441 537 902 908 978 985
979 998 6 71 3 1922 -3 1945 -13 50 -49 76 -169 123 -63 24 -130 50 -149 58
-19 8 -44 19 -55 23 -23 10 -269 106 -365 143 -36 14 -141 55 -235 92 -93 37
-228 89 -300 117 -71 28 -134 54 -139 59 -5 4 -8 20 -7 36 1 15 1 37 1 48 -2
34 -2 38 -1 115 1 41 -1 86 -3 100 -2 14 -4 30 -5 36 0 7 -15 25 -33 42 l-31
31 -481 0 c-284 0 -491 -4 -506 -10z m810 -238 c10 -2 5 -6311 -5 -6312 -45
-5 -103 -3 -117 4 -10 4 -18 4 -18 -1 0 -4 -9 -8 -20 -8 -11 0 -20 4 -20 9 0
4 -5 5 -12 1 -16 -10 -99 -11 -105 -1 -2 4 -9 4 -15 1 -16 -10 -60 -11 -80 -1
-10 4 -18 4 -18 0 0 -4 -38 -8 -85 -8 -47 0 -85 4 -85 9 0 5 -6 4 -13 -2 -28
-24 -55 29 -35 70 4 9 5 19 1 21 -10 6 -9 129 1 145 4 7 4 12 -1 12 -10 0 -10
91 1 108 4 7 4 12 -1 12 -10 0 -10 91 1 108 4 7 4 12 -1 12 -4 0 -8 29 -8 65
0 36 4 65 9 65 5 0 4 6 -1 13 -5 6 -7 37 -6 67 2 30 3 61 3 68 0 6 0 32 0 57
0 25 0 52 0 60 0 8 0 35 0 60 0 25 0 52 0 60 0 72 0 137 0 148 0 6 -1 38 -3
70 -1 31 2 57 6 57 6 0 6 5 0 13 -10 14 -10 208 1 225 4 7 4 12 -1 12 -10 0
-10 91 1 108 4 7 4 12 -1 12 -10 0 -10 91 1 108 4 7 4 12 -1 12 -4 0 -8 29 -8
65 0 36 4 65 9 65 5 0 4 6 -1 13 -5 6 -7 37 -6 67 2 30 3 61 3 68 0 6 0 32 0
57 0 25 0 52 0 60 0 8 0 35 0 60 0 25 0 52 0 60 0 72 0 137 0 148 0 6 -1 38
-3 70 -1 31 1 57 6 57 4 0 5 6 1 12 -11 17 -11 258 -1 258 5 0 5 5 1 12 -10
16 -11 88 -2 116 4 12 4 22 0 22 -4 0 -7 38 -7 85 0 47 4 85 8 85 5 0 5 5 1
12 -10 16 -11 88 -2 116 4 12 4 22 0 22 -4 0 -7 22 -7 50 0 27 4 50 8 50 5 0
5 5 1 12 -11 17 -11 108 -1 108 5 0 5 5 1 12 -11 17 -11 108 -1 108 5 0 5 5 1
12 -11 17 -11 108 -1 108 5 0 5 5 1 12 -11 17 -11 108 -1 108 5 0 5 5 1 12
-11 17 -11 108 -1 108 5 0 5 5 1 12 -11 17 -11 108 -1 108 5 0 5 5 1 12 -11
17 -11 108 -1 108 5 0 5 5 1 12 -11 17 -11 108 0 108 5 0 4 6 -1 13 -5 6 -7
37 -6 67 3 65 3 47 0 193 -1 64 2 117 6 117 5 0 5 5 1 12 -10 16 -11 88 -2
116 4 12 4 22 0 22 -4 0 -7 38 -7 85 0 47 4 85 8 85 5 0 5 5 1 12 -10 16 -11
88 -2 116 4 12 4 22 0 22 -9 0 -8 123 2 138 4 7 4 12 -1 12 -10 0 -10 91 1
108 4 7 4 12 -1 12 -10 0 -10 91 1 108 4 7 4 12 -1 12 -4 0 -8 29 -8 65 0 36
4 65 9 65 5 0 4 6 -1 13 -5 6 -7 37 -6 67 2 30 3 61 3 68 0 6 0 32 0 57 0 25
0 52 0 60 0 8 0 35 0 60 0 25 0 51 0 58 0 6 -1 50 -3 97 -2 47 -2 87 -1 90 2
5 618 6 634 1z m-877 -2118 c-1 -934 -2 -1702 -3 -1708 0 -17 -1200 1195
-1201 1213 -4 86 0 1724 4 1728 3 3 11 7 19 8 7 1 30 10 52 19 21 9 40 17 42
17 1 0 15 5 31 11 15 6 28 10 28 9 0 -1 26 10 59 24 32 14 65 26 72 26 8 0 14
5 14 10 0 6 11 10 24 10 14 0 27 4 30 9 3 5 18 12 33 16 15 3 45 15 68 24 22
10 74 31 115 46 41 16 113 44 160 62 47 19 90 36 95 37 6 1 27 10 49 19 21 9
44 17 50 17 6 0 23 8 36 17 14 10 25 16 25 15 0 -2 13 1 28 7 16 6 31 11 34
11 3 0 19 6 36 14 72 31 82 35 92 35 7 1 9 -570 8 -1696z m831 -4442 c13 -1
-23 -43 -122 -141 -77 -77 -145 -140 -150 -140 -19 0 -289 279 -274 282 13 2
477 1 546 -1z m50 -470 c1 -158 9 -151 -78 -65 -77 75 -77 66 0 142 38 38 71
67 73 65 3 -2 5 -66 5 -142z m-567 77 c35 -34 63 -66 63 -71 0 -12 -115 -127
-126 -127 -5 0 -8 21 -6 48 3 55 3 48 -1 140 -1 39 0 72 3 72 2 0 33 -28 67
-62z m327 -327 l77 -80 -77 -75 c-43 -42 -80 -76 -83 -76 -7 0 -135 130 -145
147 -4 8 20 41 66 88 40 41 76 74 79 75 3 0 40 -36 83 -79z m-324 -341 l67
-71 -64 -64 c-36 -36 -68 -63 -72 -61 -9 6 -7 48 3 64 4 7 3 12 -1 12 -5 0 -8
19 -6 43 2 23 3 47 3 52 0 6 -1 29 -3 53 -2 23 -1 42 1 42 2 0 34 -32 72 -70z
m564 -75 c1 -74 -1 -135 -4 -135 -3 0 -37 32 -75 70 l-69 70 69 70 c38 38 71
67 74 64 3 -2 5 -65 5 -139z m-238 -250 l75 -75 -78 -80 c-64 -65 -80 -77 -92
-67 -31 24 -136 138 -136 147 0 11 135 150 146 150 5 0 43 -34 85 -75z m238
-415 c1 -77 1 -140 0 -140 -1 0 -34 31 -73 70 -47 45 -70 74 -65 82 12 21 129
135 133 131 3 -2 5 -66 5 -143z m-504 6 c0 -5 -28 -38 -62 -73 -59 -59 -63
-62 -69 -41 -3 13 -1 29 4 36 5 6 6 12 1 12 -5 0 -9 14 -9 30 0 17 4 30 8 30
5 0 5 5 1 12 -9 15 -11 98 -2 98 4 0 5 8 1 18 -3 9 24 -12 61 -48 36 -35 66
-69 66 -74z m323 -314 l118 -119 -256 0 c-140 -1 -255 1 -255 3 0 2 55 60 122
128 93 95 126 122 138 116 8 -5 68 -62 133 -128z m172 -371 c16 -2 7 -290 -11
-373 -3 -13 -7 -34 -10 -48 -2 -14 -7 -36 -10 -50 -3 -14 -6 -27 -6 -30 -4
-36 -86 -223 -100 -228 -4 -2 -8 -8 -8 -13 0 -6 -17 -33 -39 -62 l-38 -52 -86
0 -85 0 -40 50 c-22 28 -54 78 -71 113 -34 68 -86 216 -95 272 -3 19 -8 46
-10 59 -3 13 -8 62 -11 109 -3 47 -7 88 -10 90 -3 3 0 11 6 19 6 7 8 13 3 13
-10 0 -11 110 -2 125 5 8 571 13 623 6z"/>
<path d="M6035 11738 c-36 -10 -55 -25 -76 -58 -14 -23 -16 -218 -16 -2015 0
-1187 3 -2000 9 -2015 11 -31 54 -69 87 -77 35 -9 101 17 125 50 l21 28 2
1997 c2 2188 6 2038 -57 2076 -38 22 -58 25 -95 14z"/>
</g>
</svg>
