<?xml version="1.0" standalone="no"?>
<!DOCTYPE svg PUBLIC "-//W3C//DTD SVG 20010904//EN"
 "http://www.w3.org/TR/2001/REC-SVG-20010904/DTD/svg10.dtd">
<svg version="1.0" xmlns="http://www.w3.org/2000/svg"
 width="700.000000pt" height="700.000000pt" viewBox="0 0 700.000000 700.000000"
 preserveAspectRatio="xMidYMid meet">
<metadata>
Created by potrace 1.14, written by Peter Selinger 2001-2017
</metadata>
<g transform="translate(0.000000,700.000000) scale(0.100000,-0.100000)"
fill="#000000" stroke="none">
<path d="M2146 6739 c-335 -36 -645 -278 -731 -571 -42 -145 -4 -308 97 -421
29 -31 40 -37 93 -42 142 -15 415 -162 677 -366 81 -63 374 -304 388 -319 3
-3 34 -30 70 -60 36 -30 70 -59 76 -65 6 -5 37 -32 69 -60 62 -53 153 -134
378 -333 75 -68 137 -119 137 -115 0 16 -137 468 -216 713 -275 850 -472 1347
-585 1474 -75 85 -200 149 -312 162 -29 3 -56 6 -62 8 -5 1 -41 -1 -79 -5z"/>
<path d="M968 6110 c-54 -15 -92 -73 -82 -125 7 -40 37 -94 76 -139 34 -39 36
-40 95 -37 39 1 79 -4 116 -17 l55 -20 -20 47 c-14 31 -20 68 -20 116 -1 75 0
74 -75 132 -41 32 -110 52 -145 43z"/>
<path d="M825 5581 c-113 -33 -205 -90 -305 -191 -242 -243 -329 -587 -212
-834 70 -146 165 -217 455 -337 67 -27 131 -54 142 -59 166 -76 892 -318 1545
-516 63 -20 128 -40 144 -45 l29 -9 -19 22 c-10 13 -21 25 -24 28 -13 13 -101
112 -150 169 -30 36 -62 72 -71 80 -25 25 -405 466 -484 561 -38 47 -74 90
-80 96 -5 6 -22 26 -37 45 -14 19 -36 45 -47 59 -170 206 -345 491 -396 645
-9 28 -19 75 -22 105 -5 47 -11 60 -41 87 -111 99 -281 137 -427 94z"/>
<path d="M1632 5368 c-16 -21 10 -99 64 -188 107 -177 429 -585 737 -935 145
-163 315 -354 362 -405 29 -30 83 -89 120 -130 219 -238 482 -514 726 -763
l177 -180 46 6 c64 9 116 45 221 151 93 93 129 151 141 224 l6 38 -129 126
c-70 69 -146 143 -169 164 -194 185 -343 326 -364 344 -14 12 -54 49 -90 83
-36 34 -110 103 -164 152 -55 50 -111 101 -125 114 -14 13 -78 69 -141 125
-63 55 -124 110 -136 121 -11 11 -44 40 -74 65 -29 25 -65 56 -80 70 -84 77
-495 418 -635 526 -224 174 -425 303 -471 304 -6 0 -16 -6 -22 -12z"/>
<path d="M4442 3019 c0 -151 -322 -471 -461 -457 -36 3 -4 -31 680 -715 l717
-717 49 16 c186 62 305 166 392 341 71 142 151 39 -663 852 -682 682 -714 712
-714 680z m678 -808 l620 -619 -37 -73 c-22 -44 -57 -93 -88 -123 -62 -61 -64
-62 -140 -103 l-60 -32 -621 621 -622 621 67 50 c78 59 177 160 223 228 18 27
34 49 36 49 2 0 282 -279 622 -619z"/>
<path d="M5926 1193 c-7 -23 -59 -79 -101 -110 l-28 -20 144 -140 c155 -150
285 -272 365 -343 168 -147 400 -320 429 -320 13 0 -30 79 -84 153 -125 173
-286 354 -602 681 -101 104 -117 117 -123 99z"/>
</g>
</svg>
