<?xml version="1.0" encoding="utf-8"?>
<svg version="1.1" width="200px" height="303" viewBox="0 0 100 303" xmlns="http://www.w3.org/2000/svg">
  <g transform="matrix(1,0,0,1,-0.6060606060606233,0.19866783251828224)">
    <svg viewBox="0 0 396 120" data-background-color="#dedede" preserveAspectRatio="xMidYMid meet" height="303" width="1000" xmlns="http://www.w3.org/2000/svg">
      <g id="tight-bounds" transform="matrix(1,0,0,1,0.2400000000000091,-0.07868032971020966)">
        <svg viewBox="0 0 395.52 120.15736065942039" height="120.15736065942039" width="395.52">
          <g>
            <svg viewBox="0 0 509.5559658602502 154.80102135424096" height="120.15736065942039" width="395.52">
              <g/>
              <g transform="matrix(1,0,0,1,114.03596586025022,21.39435244476124)">
                <svg viewBox="0 0 395.52 112.01231646471848" height="112.01231646471848" width="395.52">
                  <g>
                    <svg viewBox="0 0 395.52 112.01231646471848" height="112.01231646471848" width="395.52">
                      <g>
                        <svg viewBox="0 0 395.52 112.01231646471848" height="112.01231646471848" width="395.52">
                          <g transform="matrix(1,0,0,1,0,0)">
                            <svg width="395.52" viewBox="0.15 -40.9 214.13 59.6" height="112.01231646471848" data-palette-color="#000000">
                              <g class="undefined-text-0" data-fill-palette-color="primary" id="text-0"/>
                            </svg>
                          </g>
                        </svg>
                      </g>
                    </svg>
                  </g>
                </svg>
              </g>
              <g>
                <svg viewBox="0 0 51.04774032130153 154.80102135424096" height="154.80102135424096" width="51.04774032130153">
                  <g>
                    <svg xmlns="http://www.w3.org/2000/svg" version="1.1" x="0" y="0" viewBox="33.68 0.5099999999999999 32.64000000000001 98.98" enable-background="new 0 0 100 100" height="154.80102135424096" width="51.04774032130153" class="icon-icon-0" data-fill-palette-color="accent" id="icon-0">
                      <path d="M65.68 8.17L54.7 3.86V1.49c0-0.41-0.25-0.77-0.61-0.92-0.02-0.01-0.06-0.03-0.1-0.03-0.06-0.01-0.11-0.03-0.18-0.03h-7.3c-0.28 0-0.53 0.08-0.71 0.27-0.2 0.19-0.29 0.44-0.29 0.71v2.29L34.32 8.17c-0.38 0.15-0.64 0.52-0.64 0.93v15.28c0 0.27 0.12 0.52 0.29 0.71l11.48 11.55c0.02 0.02 0.03 0.03 0.06 0.04v40.56c0 4.17 1.48 6.5 2.76 7.72 0.18 0.18 0.42 0.29 0.7 0.29 0.05 0 0.1 0 0.13-0.01v13.25c0 0.55 0.45 1 1 1 0.55 0 1-0.45 1-1V85.25h0.12c0.26 0 0.5-0.09 0.69-0.27 1.27-1.22 2.79-3.55 2.79-7.74V36.49l11.33-11.4c0.18-0.19 0.29-0.44 0.29-0.71V9.1C66.32 8.69 66.07 8.32 65.68 8.17zM45.51 33.85l-9.83-9.88V9.78l9.83-3.84V33.85zM47.51 58.67l1.15 1.16-1.15 1.16V58.67zM50.07 72.09l2.14 2.14h-4.28L50.07 72.09zM48.78 67.97l1.29-1.3 1.31 1.3-1.31 1.3L48.78 67.97zM50.07 63.85l-1.29-1.31 1.29-1.3 1.31 1.31L50.07 63.85zM50.07 58.42l-2.28-2.29c-0.05-0.04-0.09-0.08-0.13-0.1h4.8L50.07 58.42zM47.51 64.11l1.15 1.15-1.15 1.16V64.11zM47.51 69.52l1.15 1.16-1.15 1.16V69.52zM52.7 77.24c0 3.29-1.09 5.11-1.89 6.01H49.4c-0.81-0.9-1.89-2.73-1.89-6.01v-1.01h5.19V77.24zM52.7 71.9l-1.22-1.22 1.22-1.21V71.9zM52.7 66.48l-1.22-1.22 1.22-1.22V66.48zM52.7 61.05l-1.22-1.22 1.22-1.21V61.05zM52.7 54.03h-5.19V2.5h5.19V54.03z" fill="#61777f" data-fill-palette-color="accent"/>
                      <path d="M51.023 4.578v32.03c0 0.55-0.45 1-1 1s-1-0.45-1-1V4.578c0-0.55 0.45-1 1-1S51.023 4.028 51.023 4.578z" fill="#61777f" data-fill-palette-color="accent"/>
                    </svg>
                    <g/>
                  </g>
                </svg>
              </g>
            </svg>
          </g>
        </svg>
        <rect width="395.52" height="120.15736065942039" fill="none" stroke="none" visibility="hidden"/>
      </g>
    </svg>
  </g>
</svg>