<svg xmlns="http://www.w3.org/2000/svg" version="1.1" xmlns:xlink="http://www.w3.org/1999/xlink" xmlns:svgjs="http://svgjs.dev/svgjs" width="1000" height="303" viewBox="0 0 1000 303"><g transform="matrix(1,0,0,1,-0.6060606060606233,0.19866783251828224)"><svg viewBox="0 0 396 120" data-background-color="#dedede" preserveAspectRatio="xMidYMid meet" height="303" width="1000" xmlns="http://www.w3.org/2000/svg" xmlns:xlink="http://www.w3.org/1999/xlink"><defs></defs><g id="tight-bounds" transform="matrix(1,0,0,1,0.2400000000000091,-0.07868032971020966)"><svg viewBox="0 0 395.52 120.15736065942039" height="120.15736065942039" width="395.52"><g><svg viewBox="0 0 509.5559658602502 154.80102135424096" height="120.15736065942039" width="395.52"><g><rect width="10.101386295498905" height="112.57237804704206" x="77.49115994302642" y="21.114321653599447" fill="#000000" opacity="1" stroke-width="0" stroke="transparent" fill-opacity="1" class="rect-si-0" data-fill-palette-color="primary" rx="1%" id="si-0" data-palette-color="#000000"></rect></g><g transform="matrix(1,0,0,1,114.03596586025022,21.39435244476124)"><svg viewBox="0 0 395.52 112.01231646471848" height="112.01231646471848" width="395.52"><g><svg viewBox="0 0 395.52 112.01231646471848" height="112.01231646471848" width="395.52"><g><svg viewBox="0 0 395.52 112.01231646471848" height="112.01231646471848" width="395.52"><g transform="matrix(1,0,0,1,0,0)"><svg width="395.52" viewBox="0.15 -40.9 214.13 59.6" height="112.01231646471848" data-palette-color="#000000"><g class="undefined-text-0" data-fill-palette-color="primary" id="text-0"><path d="M18.75-1.8L18.75-1.8Q14.1 1.95 8.45 1.95L8.45 1.95Q2 1.95 0.5-1.65L0.5-1.65Q0.15-2.5 0.15-3.63 0.15-4.75 1.3-6.05L1.3-6.05Q3.1-8.1 6.3-8.1L6.3-8.1Q8.45-8.1 10.63-7.33 12.8-6.55 18.35-3.6L18.35-3.6Q20.85-6 23.35-10 25.85-14 27.68-17.73 29.5-21.45 32.13-25.85 34.75-30.25 37.35-33.15L37.35-33.15Q31.75-36.5 25.45-36.5L25.45-36.5Q22.85-36.5 20.15-35.95L20.15-35.95Q12.4-34.3 8.35-29.2L8.35-29.2Q5.85-26.1 5.85-23.3L5.85-23.3Q5.85-19.5 9.5-18.35L9.5-18.35Q10.8-18 11.75-18 12.7-18 13.88-18.3 15.05-18.6 16.2-19.7L16.2-19.7Q18.4-21.9 18.55-23.8L18.55-23.8Q18.6-24.25 19.13-24.13 19.65-24 19.55-23.35L19.55-23.35Q19.05-19.7 15.7-17.8L15.7-17.8Q13.65-16.7 11.6-16.7L11.6-16.7 9-17.15Q5.2-18.45 4-22L4-22Q3.5-23.35 3.5-24.7L3.5-24.7Q3.5-27.45 5.55-30.15L5.55-30.15Q9.95-36.05 21.15-37.7L21.15-37.7Q23.35-38 25.5-38L25.5-38Q32.45-38 38.75-34.7L38.75-34.7Q40.7-36.95 42.35-38.13 44-39.3 45-39.3L45-39.3Q45.55-39.3 45.65-39.08 45.75-38.85 45.63-38.73 45.5-38.6 45.3-38.6L45.3-38.6Q44.45-38.6 43.1-36.8 41.75-35 40.9-33.45L40.9-33.45Q46.25-29.9 49.05-24.35L49.05-24.35Q51.3-19.9 51.3-14.65L51.3-14.65Q51.3-8.15 48.2-4.3L48.2-4.3Q45.65-1.15 42 0.15L42 0.15Q37.65 1.7 33.4 1.7L33.4 1.7Q24.8 1.7 18.75-1.8ZM19.95-2.7L19.95-2.7Q25 0.3 31.8 0.3L31.8 0.3Q39.7 0.3 44.4-4.2L44.4-4.2Q48.15-7.85 48.15-14.3L48.15-14.3Q48.15-18.9 46.35-22.95L46.35-22.95Q44.1-28.1 39.7-31.55L39.7-31.55Q38.25-29.3 34.13-22.48 30-15.65 27.15-11.4 24.3-7.15 22.65-5.38 21-3.6 19.95-2.7ZM17.05-2.6L17.05-2.6Q11.2-5.4 9.65-5.95 8.1-6.5 6.63-6.5 5.15-6.5 4.28-5.4 3.4-4.3 3.4-3.43 3.4-2.55 3.8-1.75L3.8-1.75Q4.85 0.4 8.1 0.4L8.1 0.4Q12.9 0.4 17.05-2.6ZM68.75-13.55Q67.85-12.65 66.2-9.47 64.55-6.3 64.22-4.73 63.9-3.15 63.9-2.18 63.9-1.2 64.65-1.2L64.65-1.2Q65.6-1.2 67-2.95L67-2.95Q69.05-5.5 71.05-9.6L71.05-9.6Q71.25-10.05 71.5-10.1L71.5-10.1Q71.9-10.25 71.9-9.8L71.9-9.8Q71.9-9.55 71.75-9.2L71.75-9.2Q67.15 0.1 64 0.1L64 0.1Q62.55 0.1 61.65-1.3L61.65-1.3Q61.2-2.05 61.2-3.3 61.2-4.55 61.7-6.35L61.7-6.35Q57.7 0.1 54.8 0.1L54.8 0.1Q54 0.1 53.35-0.4L53.35-0.4Q51.85-1.45 51.85-4L51.85-4Q51.85-8.9 56.1-13.95L56.1-13.95Q58.5-16.75 62-17.6L62-17.6Q62.95-17.85 63.8-17.85L63.8-17.85Q66.1-17.85 67.7-16.25L67.7-16.25Q68.2-15.7 68-15.2 67.8-14.7 67.15-14.8L67.15-14.8Q66.6-16.6 64.75-16.6L64.75-16.6Q62.6-16.6 59.45-13.2L59.45-13.2Q57.65-11.2 56.1-8.5L56.1-8.5Q54.15-5.25 54.15-3.3 54.15-1.35 55.4-1.35L55.4-1.35Q58.4-1.35 63.25-10.55L63.25-10.55Q64.2-12.4 64.85-13.08 65.5-13.75 66.5-13.75L66.5-13.75Q66.7-13.75 67.52-13.6 68.35-13.45 68.75-13.55L68.75-13.55ZM77.75-20.05L77.75-20.05Q77.75-17.8 74.9-15.8L74.9-15.8Q75.9-15.75 77.57-15.75 79.25-15.75 81.8-16L81.8-16Q81.9-15.85 81.9-15.2 81.9-14.55 81.3-13.28 80.7-12 80.22-11.08 79.75-10.15 79.32-9.33 78.9-8.5 78.37-7.3 77.85-6.1 77.5-5.1L77.5-5.1Q76.25-1.3 77.9-1.3L77.9-1.3Q80-1.3 84.1-9.65L84.1-9.65Q84.45-10.3 84.67-10.15 84.9-10 84.9-9.78 84.9-9.55 84.25-8.22 83.6-6.9 82.85-5.5 82.1-4.1 80.5-2.25L80.5-2.25Q78.6 0.05 76.85 0.05L76.85 0.05Q74.9 0.05 74.15-2.3L74.15-2.3Q74-2.75 74-3.65 74-4.55 74.57-6.05 75.15-7.55 76.4-9.7 77.65-11.85 77.8-12.23 77.95-12.6 77.95-12.95L77.95-12.95Q77.95-14.5 73.95-14.6L73.95-14.6 73.35-13Q70.2-4.75 67.3-1.95L67.3-1.95Q66.8-1.5 66.8-2.25L66.8-2.25Q66.8-2.4 66.9-2.6L66.9-2.6Q69.7-6.3 71.75-11.35 73.8-16.4 74.6-20.95L74.6-20.95Q74.9-22.5 76-22.5 77.1-22.5 77.6-21.1L77.6-21.1Q77.75-20.65 77.75-20.05ZM82.79-4L82.79-4Q82.79-8.15 86.79-17.9L86.79-17.9 84.19-17.9Q83.94-17.9 83.87-18.18 83.79-18.45 83.92-18.73 84.04-19 84.29-19L84.29-19 87.29-19Q89.09-22.95 90.64-25.6 92.19-28.25 93.49-29.18 94.79-30.1 95.37-30.1 95.94-30.1 96.19-30L96.19-30Q97.34-29.45 97.34-27.73 97.34-26 96.19-23.55 95.04-21.1 93.94-19L93.94-19 96.34-19Q96.59-19 96.67-18.73 96.74-18.45 96.62-18.18 96.49-17.9 96.24-17.9L96.24-17.9 93.34-17.9Q90.59-13.25 86.69-9.65L86.69-9.65 85.54-4.55Q85.39-3.9 85.39-3.28 85.39-2.65 85.74-2 86.09-1.35 86.84-1.35L86.84-1.35Q87.69-1.35 88.74-1.95L88.74-1.95Q91.14-3.75 94.04-9.5L94.04-9.5Q94.24-9.95 94.52-10.05 94.79-10.15 94.84-9.93 94.89-9.7 94.69-9.2L94.69-9.2Q93.04-5.75 92.09-4.3L92.09-4.3Q89.39 0.05 86.34 0.05L86.34 0.05Q84.79 0.05 83.79-1.1 82.79-2.25 82.79-4ZM90.34-19L92.84-19Q96.14-24.9 96.14-27.2L96.14-27.2Q96.14-28.2 95.79-28.2L95.79-28.2Q95.24-28.2 94.12-26.6 92.99-25 90.34-19L90.34-19ZM92.19-17.9L92.19-17.9 89.84-17.9Q89.24-16.5 87.14-11.25L87.14-11.25Q89.84-14.05 92.19-17.9ZM98.29-0.95L98.29-0.95Q98.94-0.85 99.19-0.85L99.19-0.85Q101.19-0.85 103.14-3.2L103.14-3.2Q104.19-4.5 106.89-9.75L106.89-9.75Q106.99-10 107.24-10L107.24-10Q107.69-10.05 107.69-9.65L107.69-9.65Q107.69-9.55 107.47-9.08 107.24-8.6 107.04-8.13 106.84-7.65 106.39-6.75 105.94-5.85 105.62-5.3 105.29-4.75 104.79-3.95 104.29-3.15 103.79-2.7L103.79-2.7 102.74-1.6Q101.89-0.75 100.74-0.4L100.74-0.4Q98.89 0.2 97.14-0.3L97.14-0.3Q95.99 0.2 95.09 0.2L95.09 0.2Q91.54 0.2 90.79-2.6L90.79-2.6Q90.64-3.25 90.64-4.17 90.64-5.1 91.27-5.95 91.89-6.8 92.59-6.85L92.59-6.85Q95.14-11.7 96.94-15.6L96.94-15.6Q98.94-19.85 101.59-19.85L101.59-19.85Q102.29-19.85 102.97-19.53 103.64-19.2 103.47-18.8 103.29-18.4 102.74-18.65 102.19-18.9 101.79-18.9 101.39-18.9 101.09-18.75L101.09-18.75Q99.39-17.95 99.39-15.3L99.39-15.3Q99.39-13.9 99.79-13 100.19-12.1 100.69-11.05L100.69-11.05Q101.84-8.45 101.84-6.8L101.84-6.8Q101.84-5.15 100.79-3.55 99.74-1.95 98.29-0.95ZM96.59-1.3L96.59-1.3Q98.79-3 98.79-6.8L98.79-6.8Q98.79-8.35 98.44-11.05 98.09-13.75 98.09-14.7 98.09-15.65 98.14-16L98.14-16Q94.34-8.4 93.44-6.75L93.44-6.75Q94.49-6.75 94.49-5.25L94.49-5.25Q94.49-2.3 96.59-1.3ZM92.84-2.65L92.84-2.65Q92.84-2.35 92.89-2L92.89-2Q93.29-0.65 94.74-0.65L94.74-0.65Q95.34-0.65 95.74-0.85L95.74-0.85Q93.89-2 93.74-4.6L93.74-4.6Q92.84-3.7 92.84-2.65Z" fill="#000000" data-fill-palette-color="primary"></path><path d="M115.59-23.1L115.59-23.1Q113.19-17.9 113.19-13.8L113.19-13.8Q113.19-5.35 118.99-3.45L118.99-3.45Q120.69-3 122.47-3 124.24-3 126.04-3.45L126.04-3.45Q129.64-4.4 132.49-6.3 135.34-8.2 136.09-9.95L136.09-9.95Q138.09-14.6 140.39-14.6L140.39-14.6Q141.54-14.6 141.94-13.3L141.94-13.3Q142.14-12.8 142.04-12.2L142.04-12.2Q141.54-8.3 139.89-4.48 138.24-0.65 135.24 4.3L135.24 4.3Q141.24 4.35 146.19 5.6L146.19 5.6Q147.24 5.85 147.24 6.3L147.24 6.3Q147.24 6.85 145.79 6.5L145.79 6.5Q142.34 5.6 135.84 5.6L135.84 5.6Q135.24 5.6 134.54 5.6L134.54 5.6Q131.49 10 126.42 13.38 121.34 16.75 116.54 18L116.54 18Q113.89 18.7 112.04 18.7 110.19 18.7 108.94 18.25L108.94 18.25Q105.29 16.9 105.29 14.7L105.29 14.7Q105.29 14.05 105.64 13.3L105.64 13.3Q106.99 10.3 112.74 7.75L112.74 7.75Q117.09 5.8 121.92 5.1 126.74 4.4 132.74 4.3L132.74 4.3Q136.44-1.95 137.79-8L137.79-8 137.99-8.85Q135.59-6.55 132.57-4.78 129.54-3 127.29-2.3L127.29-2.3Q123.69-1.15 121.37-1.15 119.04-1.15 117.29-1.8L117.29-1.8Q114.09-2.9 112.09-6.2L112.09-6.2Q109.94-9.7 109.94-14.55 109.94-19.4 112.49-24.95L112.49-24.95Q109.19-28.35 109.19-32.18 109.19-36 112.29-39.45L112.29-39.45Q112.89-40.1 113.17-39.93 113.44-39.75 112.94-39.05L112.94-39.05Q110.69-36.05 110.69-33L110.69-33Q110.69-29.5 113.29-26.45L113.29-26.45Q113.59-27.1 114.39-28.4L114.39-28.4Q118.29-34.8 124.99-38.2L124.99-38.2Q130.24-40.9 135.14-40.9L135.14-40.9Q136.49-40.9 137.84-40.7L137.84-40.7Q144.29-39.7 146.54-35.4L146.54-35.4Q147.44-33.7 147.44-31.73 147.44-29.75 146.19-27.5L146.19-27.5Q143.39-22.65 136.39-20.7L136.39-20.7Q132.69-19.65 128.84-19.65L128.84-19.65Q120.74-19.65 115.59-23.1ZM136.29-39.35L136.29-39.35Q131.99-39.35 127.19-36.45L127.19-36.45Q120.14-32.25 116.24-24.4L116.24-24.4Q118.59-22.6 121.67-21.85 124.74-21.1 126.59-21.1L126.59-21.1Q137.14-21.1 142.54-26.75L142.54-26.75Q145.24-29.65 145.24-32.55L145.24-32.55Q145.24-37.15 140.09-38.75L140.09-38.75Q138.19-39.35 136.29-39.35ZM107.84 15.05L107.84 15.05Q107.84 16.45 110.24 16.95L110.24 16.95Q111.04 17.15 111.99 17.15L111.99 17.15Q115.54 17.15 120.99 14.6L120.99 14.6Q127.89 11.45 131.94 5.65L131.94 5.65Q126.69 5.8 122.74 6.45L122.74 6.45Q117.04 7.3 111.89 10.6L111.89 10.6Q107.84 13.2 107.84 15.05ZM160.69-13.55Q159.79-12.65 158.14-9.47 156.49-6.3 156.16-4.73 155.84-3.15 155.84-2.18 155.84-1.2 156.59-1.2L156.59-1.2Q157.54-1.2 158.94-2.95L158.94-2.95Q160.99-5.5 162.99-9.6L162.99-9.6Q163.19-10.05 163.44-10.1L163.44-10.1Q163.84-10.25 163.84-9.8L163.84-9.8Q163.84-9.55 163.69-9.2L163.69-9.2Q159.09 0.1 155.94 0.1L155.94 0.1Q154.49 0.1 153.59-1.3L153.59-1.3Q153.14-2.05 153.14-3.3 153.14-4.55 153.64-6.35L153.64-6.35Q149.64 0.1 146.74 0.1L146.74 0.1Q145.94 0.1 145.29-0.4L145.29-0.4Q143.79-1.45 143.79-4L143.79-4Q143.79-8.9 148.04-13.95L148.04-13.95Q150.44-16.75 153.94-17.6L153.94-17.6Q154.89-17.85 155.74-17.85L155.74-17.85Q158.04-17.85 159.64-16.25L159.64-16.25Q160.14-15.7 159.94-15.2 159.74-14.7 159.09-14.8L159.09-14.8Q158.54-16.6 156.69-16.6L156.69-16.6Q154.54-16.6 151.39-13.2L151.39-13.2Q149.59-11.2 148.04-8.5L148.04-8.5Q146.09-5.25 146.09-3.3 146.09-1.35 147.34-1.35L147.34-1.35Q150.34-1.35 155.19-10.55L155.19-10.55Q156.14-12.4 156.79-13.08 157.44-13.75 158.44-13.75L158.44-13.75Q158.64-13.75 159.46-13.6 160.29-13.45 160.69-13.55L160.69-13.55ZM186.64-16.4L186.64-16.4Q180.54-5.55 180.54-2.4L180.54-2.4Q180.54-1 181.49-1L181.49-1Q182.69-1 184.24-2.8L184.24-2.8Q186.59-5.65 188.34-9.65L188.34-9.65Q188.64-10.35 188.94-10.2 189.24-10.05 189.24-9.8 189.24-9.55 188.74-8.55 188.24-7.55 187.94-6.95 187.64-6.35 186.61-4.65 185.59-2.95 184.86-2.15 184.14-1.35 183.01-0.58 181.89 0.2 180.46 0.2 179.04 0.2 178.04-1.2L178.04-1.2Q177.59-1.85 177.59-2.98 177.59-4.1 178.09-5.7 178.59-7.3 180.84-10.9L180.84-10.9Q181.39-11.8 181.39-12.33 181.39-12.85 180.56-12.85 179.74-12.85 177.59-10.85 175.44-8.85 173.06-5.45 170.69-2.05 170.24 0L170.24 0Q169.39 0 168.99-0.7 168.59-1.4 168.59-1.9L168.59-1.9Q168.59-3.95 171.34-9.7L171.34-9.7Q172.24-11.6 172.29-12.28 172.34-12.95 172.11-12.98 171.89-13 171.49-12.8L171.49-12.8Q170.59-12.35 168.74-10.6L168.74-10.6Q165.24-7.4 161.84-0.85L161.84-0.85Q161.59-0.3 161.21-0.18 160.84-0.05 159.74 0 158.64 0.05 158.29 0.25L158.29 0.25Q159.19-1.5 161.44-6.3L161.44-6.3Q165.49-14.9 166.84-16.2L166.84-16.2Q167.44-16.8 168.49-16.8L168.49-16.8Q168.69-16.8 169.51-16.65 170.34-16.5 170.74-16.6L170.74-16.6Q168.89-15.6 164.69-7.2L164.69-7.2Q167.04-10.1 168.06-11 169.09-11.9 169.59-12.35 170.09-12.8 170.36-13.05 170.64-13.3 171.16-13.78 171.69-14.25 171.96-14.48 172.24-14.7 172.74-15.1 173.24-15.5 173.51-15.63 173.79-15.75 174.26-16.05 174.74-16.35 174.96-16.35 175.19-16.35 175.59-16.48 175.99-16.6 176.14-16.4L176.14-16.4Q177.14-16 177.14-15.15L177.14-15.15Q177.14-14.4 175.44-11.3 173.74-8.2 173.24-7.2L173.24-7.2Q175.44-9.95 177.44-11.73 179.44-13.5 182.16-15 184.89-16.5 186.14-16.5L186.14-16.5Q186.44-16.5 186.64-16.4ZM190.53-7.7L190.53-7.7Q189.83-6 189.83-3.9L189.83-3.9Q189.83-2.5 190.46-1.68 191.08-0.85 192.23-0.85L192.23-0.85Q196.78-0.85 200.48-9.4L200.48-9.4Q200.83-10.2 201.33-10.1L201.33-10.1Q201.53-10.05 201.53-9.85 201.53-9.65 200.41-7.23 199.28-4.8 198.13-3.3L198.13-3.3Q195.58 0.2 191.83 0.2L191.83 0.2Q189.83 0.2 188.43-1.1 187.03-2.4 187.03-4.65 187.03-6.9 188.11-9.43 189.18-11.95 191.03-14.13 192.88-16.3 195.28-17.3L195.28-17.3Q196.43-17.8 197.48-17.8 198.53-17.8 199.43-17.2L199.43-17.2Q200.28-16.5 200.28-15.65L200.28-15.65Q200.28-12.65 196.68-9.9L196.68-9.9Q195.58-9.05 193.58-8.38 191.58-7.7 190.53-7.7ZM198.93-15.7L198.93-15.7Q198.93-16.7 198.13-16.7L198.13-16.7Q196.73-16.7 193.88-13.25L193.88-13.25Q192.18-11.15 190.88-8.55L190.88-8.55Q191.73-8.55 193.36-9.15 194.98-9.75 196.18-10.75L196.18-10.75Q198.93-13.1 198.93-15.7ZM204.88-0.95L204.88-0.95Q205.53-0.85 205.78-0.85L205.78-0.85Q207.78-0.85 209.73-3.2L209.73-3.2Q210.78-4.5 213.48-9.75L213.48-9.75Q213.58-10 213.83-10L213.83-10Q214.28-10.05 214.28-9.65L214.28-9.65Q214.28-9.55 214.06-9.08 213.83-8.6 213.63-8.13 213.43-7.65 212.98-6.75 212.53-5.85 212.21-5.3 211.88-4.75 211.38-3.95 210.88-3.15 210.38-2.7L210.38-2.7 209.33-1.6Q208.48-0.75 207.33-0.4L207.33-0.4Q205.48 0.2 203.73-0.3L203.73-0.3Q202.58 0.2 201.68 0.2L201.68 0.2Q198.13 0.2 197.38-2.6L197.38-2.6Q197.23-3.25 197.23-4.17 197.23-5.1 197.86-5.95 198.48-6.8 199.18-6.85L199.18-6.85Q201.73-11.7 203.53-15.6L203.53-15.6Q205.53-19.85 208.18-19.85L208.18-19.85Q208.88-19.85 209.56-19.53 210.23-19.2 210.06-18.8 209.88-18.4 209.33-18.65 208.78-18.9 208.38-18.9 207.98-18.9 207.68-18.75L207.68-18.75Q205.98-17.95 205.98-15.3L205.98-15.3Q205.98-13.9 206.38-13 206.78-12.1 207.28-11.05L207.28-11.05Q208.43-8.45 208.43-6.8L208.43-6.8Q208.43-5.15 207.38-3.55 206.33-1.95 204.88-0.95ZM203.18-1.3L203.18-1.3Q205.38-3 205.38-6.8L205.38-6.8Q205.38-8.35 205.03-11.05 204.68-13.75 204.68-14.7 204.68-15.65 204.73-16L204.73-16Q200.93-8.4 200.03-6.75L200.03-6.75Q201.08-6.75 201.08-5.25L201.08-5.25Q201.08-2.3 203.18-1.3ZM199.43-2.65L199.43-2.65Q199.43-2.35 199.48-2L199.48-2Q199.88-0.65 201.33-0.65L201.33-0.65Q201.93-0.65 202.33-0.85L202.33-0.85Q200.48-2 200.33-4.6L200.33-4.6Q199.43-3.7 199.43-2.65Z" fill="#61777f" data-fill-palette-color="secondary"></path></g></svg></g></svg></g></svg></g></svg></g><g><svg viewBox="0 0 51.04774032130153 154.80102135424096" height="154.80102135424096" width="51.04774032130153"><g><svg xmlns="http://www.w3.org/2000/svg" xmlns:xlink="http://www.w3.org/1999/xlink" version="1.1" x="0" y="0" viewBox="33.68 0.5099999999999999 32.64000000000001 98.98" enable-background="new 0 0 100 100" xml:space="preserve" height="154.80102135424096" width="51.04774032130153" class="icon-icon-0" data-fill-palette-color="accent" id="icon-0"><path d="M65.68 8.17L54.7 3.86V1.49c0-0.41-0.25-0.77-0.61-0.92-0.02-0.01-0.06-0.03-0.1-0.03-0.06-0.01-0.11-0.03-0.18-0.03h-7.3c-0.28 0-0.53 0.08-0.71 0.27-0.2 0.19-0.29 0.44-0.29 0.71v2.29L34.32 8.17c-0.38 0.15-0.64 0.52-0.64 0.93v15.28c0 0.27 0.12 0.52 0.29 0.71l11.48 11.55c0.02 0.02 0.03 0.03 0.06 0.04v40.56c0 4.17 1.48 6.5 2.76 7.72 0.18 0.18 0.42 0.29 0.7 0.29 0.05 0 0.1 0 0.13-0.01v13.25c0 0.55 0.45 1 1 1 0.55 0 1-0.45 1-1V85.25h0.12c0.26 0 0.5-0.09 0.69-0.27 1.27-1.22 2.79-3.55 2.79-7.74V36.49l11.33-11.4c0.18-0.19 0.29-0.44 0.29-0.71V9.1C66.32 8.69 66.07 8.32 65.68 8.17zM45.51 33.85l-9.83-9.88V9.78l9.83-3.84V33.85zM47.51 58.67l1.15 1.16-1.15 1.16V58.67zM50.07 72.09l2.14 2.14h-4.28L50.07 72.09zM48.78 67.97l1.29-1.3 1.31 1.3-1.31 1.3L48.78 67.97zM50.07 63.85l-1.29-1.31 1.29-1.3 1.31 1.31L50.07 63.85zM50.07 58.42l-2.28-2.29c-0.05-0.04-0.09-0.08-0.13-0.1h4.8L50.07 58.42zM47.51 64.11l1.15 1.15-1.15 1.16V64.11zM47.51 69.52l1.15 1.16-1.15 1.16V69.52zM52.7 77.24c0 3.29-1.09 5.11-1.89 6.01H49.4c-0.81-0.9-1.89-2.73-1.89-6.01v-1.01h5.19V77.24zM52.7 71.9l-1.22-1.22 1.22-1.21V71.9zM52.7 66.48l-1.22-1.22 1.22-1.22V66.48zM52.7 61.05l-1.22-1.22 1.22-1.21V61.05zM52.7 54.03h-5.19V2.5h5.19V54.03z" fill="#61777f" data-fill-palette-color="accent"></path><path d="M51.023 4.578v32.03c0 0.55-0.45 1-1 1s-1-0.45-1-1V4.578c0-0.55 0.45-1 1-1S51.023 4.028 51.023 4.578z" fill="#61777f" data-fill-palette-color="accent"></path></svg><g></g></g></svg></g></svg></g></svg><rect width="395.52" height="120.15736065942039" fill="none" stroke="none" visibility="hidden"></rect></g></svg></g></svg>