<svg xmlns="http://www.w3.org/2000/svg" version="1.1" xmlns:xlink="http://www.w3.org/1999/xlink" xmlns:svgjs="http://svgjs.dev/svgjs" width="1000" height="169" viewBox="0 0 1000 169"><g transform="matrix(1,0,0,1,-0.6060490130274161,0.33737288709536983)"><svg viewBox="0 0 396 67" data-background-color="#ffffff" preserveAspectRatio="xMidYMid meet" height="169" width="1000" xmlns="http://www.w3.org/2000/svg" xmlns:xlink="http://www.w3.org/1999/xlink"><defs></defs><g id="tight-bounds" transform="matrix(1,0,0,1,0.23999625380332645,-0.13375114876703265)"><svg viewBox="0 0 395.52 67.2675025300415" height="67.2675025300415" width="395.52"><g><svg viewBox="0 0 516.310579577721 87.81078888054091" height="67.2675025300415" width="395.52"><g><rect width="5.27924504132087" height="58.83322854996241" x="101.69132133922513" y="14.48878016528925" fill="#89939e" opacity="1" stroke-width="0" stroke="transparent" fill-opacity="1" class="rect-o-0" data-fill-palette-color="primary" rx="1%" id="o-0" data-palette-color="#89939e"></rect></g><g transform="matrix(1,0,0,1,120.79057957772105,14.635131480090148)"><svg viewBox="0 0 395.52 58.540525920360615" height="58.540525920360615" width="395.52"><g><svg viewBox="0 0 395.52 58.540525920360615" height="58.540525920360615" width="395.52"><g><svg viewBox="0 0 395.52 58.540525920360615" height="58.540525920360615" width="395.52"><g transform="matrix(1,0,0,1,0,0)"><svg width="395.52" viewBox="2.5 -37 266.17999267578125 39.400001525878906" height="58.540525920360615" data-palette-color="#89939e"><path d="M7.8-31.65Q7.85-31.6 6.55-32.75L6.55-32.75Q5.65-33.55 5.2-33.9L5.2-33.9Q5.4-35.25 6.2-35.8 7-36.35 8.3-36.65L8.3-36.65Q9.65-37 11.2-37L11.2-37Q12.7-37 14.25-36.7L14.25-36.7Q18.7-35.9 22.1-34.85 25.5-33.8 28.45-31.9L28.45-31.9Q30.5-30.65 31.9-28.95L31.9-28.95Q33.95-26.3 33.95-23.55L33.95-23.55Q33.95-21.2 32.4-18.7L32.4-18.7Q26.5-9.35 20.25-3.95L20.25-3.95Q16.45-0.6 11.85 1.55L11.85 1.55Q10.15 2.4 8.3 2.4L8.3 2.4Q6.1 2.4 4.05 1.15L4.05 1.15Q3.3 0.65 2.9 0.13 2.5-0.4 2.5-1.1L2.5-1.1 2.55-1.55 2.9-4.15Q3.5-8.75 4-11L4-11 4.25-12.1Q5.75-18.6 6.5-22.58 7.25-26.55 7.6-30.75L7.6-30.75 7.8-31.65ZM14.4-32.25Q13.8-32.3 12.8-32.15L12.8-32.15 11.7-32Q12.9-31 13.45-30.25 14-29.5 14-28.65L14-28.65Q14-28.45 13.9-27.95L13.9-27.95Q13.25-25.05 12.15-20.8L12.15-20.8 10.35-13.6Q9.15-8.7 8.25-4.5L8.25-4.5Q8.1-3.95 8.08-3.28 8.05-2.6 8.05-2.3L8.05-2.3Q8.5-2.1 8.55-2.1L8.55-2.1 9.2-2.35Q16.7-6 22-12.55L22-12.55Q24.15-15.3 25.63-17.75 27.1-20.2 27.85-22.9L27.85-22.9Q28.05-23.55 28.05-24.45L28.05-24.45Q28.05-26 27.28-27.25 26.5-28.5 25.15-29.15L25.15-29.15Q20.15-31.4 14.4-32.25L14.4-32.25ZM54.2-2.55Q53.75-2.75 53.3-2.75L53.3-2.75Q52.85-2.75 52.52-2.53 52.2-2.3 51.8-1.85L51.8-1.85Q51.2-1.25 50.55-0.85L50.55-0.85Q49.95-0.5 48.35-0.2L48.35-0.2Q47.65-0.1 47.2-0.1L47.2-0.1Q45.1-0.1 42.82-1.03 40.55-1.95 39.6-3.25L39.6-3.25Q38.6-4.65 38.65-6.25L38.65-6.25Q38.7-8.65 40.65-11.05L40.65-11.05Q42.55-13.35 44.12-14.3 45.7-15.25 48.45-15.5L48.45-15.5Q49.05-15.5 50.17-15.7 51.3-15.9 51.3-16.25L51.3-16.25Q51.3-16.95 50.67-17.53 50.05-18.1 48.15-18.1L48.15-18.1Q47.45-18.1 46.05-18L46.05-18Q44.65-17.9 44.1-17.9L44.1-17.9Q42.4-17.9 41.65-18.45L41.65-18.45Q41.45-18.55 41.45-19.4L41.45-19.4Q41.45-20.9 42.5-21.3L42.5-21.3Q44.65-22.1 46.95-22.15L46.95-22.15Q49.85-22.15 52.32-20.88 54.8-19.6 55.95-17.7L55.95-17.7Q57.1-15.8 57.45-12.45L57.45-12.45Q57.85-8.7 57.85-2.9L57.85-2.9Q57.85-1.3 57.4-1.05L57.4-1.05Q57-0.8 56.65-0.8L56.65-0.8Q56.2-0.8 55.82-1.07 55.45-1.35 55-1.85L55-1.85Q54.55-2.4 54.2-2.55L54.2-2.55ZM46.3-3.15Q48.65-3.85 50.9-5.4L50.9-5.4Q51.4-5.75 51.8-6.3 52.2-6.85 52.3-7L52.3-7Q52.4-7.15 52.47-7.88 52.55-8.6 52.5-9.05L52.5-9.05Q52.45-9.2 52.32-9.85 52.2-10.5 51.95-11L51.95-11Q51.7-11.4 51.15-11.75 50.6-12.1 50.15-12.05L50.15-12.05Q49.2-12 48.1-11.35 47-10.7 46.05-9.6L46.05-9.6Q45.1-8.45 44.57-7.28 44.05-6.1 44.05-5.1L44.05-5.1Q44.15-3.75 44.8-3.3L44.8-3.3Q45.15-3.05 45.65-3.05L45.65-3.05Q46.05-3.05 46.3-3.15L46.3-3.15ZM70.2-21.2Q70.35-20.7 70.25-19.65L70.25-19.65 69.65-13.75Q69.9-13.95 70.4-15.18 70.9-16.4 71.35-17.18 71.8-17.95 72.05-18.2L72.05-18.2Q74.4-20.45 77.35-20.9 80.3-21.35 83.85-21.3L83.85-21.3Q84.2-21.3 84.62-21.03 85.05-20.75 85.05-20.58 85.05-20.4 84.75-20.03 84.45-19.65 84.2-19.55L84.2-19.55Q81.2-18.55 78.92-17.25 76.65-15.95 75-13.85L75-13.85Q71.1-8.9 70.5-3.65L70.5-3.65Q70.35-2.25 69.65-1.78 68.95-1.3 67.7-1.3L67.7-1.3Q66.3-1.3 65.2-2.5 64.1-3.7 64.1-5.15L64.1-5.15Q64.15-10.45 64.15-21.05L64.15-21.05Q64.15-22.5 64.8-23.08 65.45-23.65 67.15-23.65L67.15-23.65Q68.4-23.65 69.27-22.95 70.15-22.25 70.2-21.2L70.2-21.2ZM86.29-18.65Q85.94-19.05 85.82-19.5 85.69-19.95 85.59-20.75L85.59-20.75Q86.04-21.8 87.24-21.8L87.24-21.8Q87.84-21.7 88.09-21.7L88.09-21.7Q89.09-21.7 89.34-22.3 89.59-22.9 89.59-23.7 89.59-24.5 89.59-24.95L89.59-24.95 89.74-27.95Q89.79-28.95 89.87-30.43 89.94-31.9 90.04-33.85L90.04-33.85Q90.09-34.9 90.57-35.4 91.04-35.9 91.89-35.9L91.89-35.9Q92.49-35.9 92.84-35.8L92.84-35.8Q94.89-35.35 95.59-34.5 96.29-33.65 96.54-31.95L96.54-31.95Q96.59-31.6 96.44-30.5L96.44-30.5 95.54-22.7Q95.49-22.4 95.39-21.98 95.29-21.55 95.29-21.35L95.29-21.35Q95.29-20.9 95.79-20.75 96.29-20.6 97.64-20.65L97.64-20.65Q99.94-21.15 101.14-21.3L101.14-21.3Q101.39-21.35 101.94-21.35L101.94-21.35Q102.54-21.35 102.74-21.2L102.74-21.2Q102.94-21.1 103.07-20.63 103.19-20.15 103.19-19.55L103.19-19.55Q103.19-19 103.07-18.55 102.94-18.1 102.74-18.05L102.74-18.05Q101.39-17.65 99.54-17.4L99.54-17.4Q97.34-17 96.29-16.7L96.29-16.7Q95.74-16.55 95.19-15.95 94.64-15.35 94.59-14.85L94.59-14.85Q94.49-12.4 94.44-9.85L94.44-9.85Q94.39-7.9 94.59-5.95L94.59-5.95Q94.74-4.3 95.24-3.58 95.74-2.85 96.74-2.85L96.74-2.85Q97.54-2.85 99.04-3.4L99.04-3.4Q99.84-3.75 100.44-3.75L100.44-3.75Q101.39-3.75 101.79-2.7L101.79-2.7Q101.94-2.35 101.94-2L101.94-2Q101.94-1.35 101.47-0.95 100.99-0.55 100.19-0.25L100.19-0.25Q98.69 0.3 97.14 0.35L97.14 0.35Q95.04 0.35 93.19-0.68 91.34-1.7 90.27-3.55 89.19-5.4 89.34-7.8L89.34-7.8Q89.39-8.75 89.39-10.8L89.39-10.8Q89.39-14.05 89.14-17.4L89.14-17.4Q89.09-17.7 88.79-17.82 88.49-17.95 87.79-18.1L87.79-18.1Q86.64-18.3 86.29-18.65L86.29-18.65ZM111.34 1.1Q107.14 1.1 105.99-2.5L105.99-2.5Q106.39-2.5 107.07-2.48 107.74-2.45 108.19-2.35L108.19-2.35Q108.89-2.25 109.19-2.25L109.19-2.25Q111.44-2.25 112.94-4.25L112.94-4.25Q113.99-5.7 113.99-7.2L113.99-7.2Q113.99-8.2 113.49-9.15L113.49-9.15Q112.39-11.1 110.79-13.45L110.79-13.45Q109.74-15 108.89-16.4L108.89-16.4Q107.89-18 107.89-19.95L107.89-19.95Q107.89-21.75 108.92-23.13 109.94-24.5 111.94-24.85L111.94-24.85 113.54-25.15Q116.14-25.65 117.44-25.65L117.44-25.65Q119.59-25.65 121.24-24.65L121.24-24.65Q121.59-24.4 121.97-23.78 122.34-23.15 122.54-22.8L122.54-22.8Q122.19-22.65 121.57-22.33 120.94-22 120.49-21.95L120.49-21.95Q119.79-21.85 118.39-21.85L118.39-21.85Q117.04-21.85 116.34-21.8L116.34-21.8Q114.74-21.65 113.82-20.73 112.89-19.8 112.89-18.5L112.89-18.5Q112.89-17.5 113.49-16.45L113.49-16.45Q114.84-14.2 117.24-11.3L117.24-11.3Q119.04-9.05 119.04-6.65L119.04-6.65Q119.04-5.35 118.44-3.9L118.44-3.9Q116.39 1.1 111.34 1.1L111.34 1.1ZM156.64-18.3Q155.44-18.2 154.89-18.2L154.89-18.2Q151.19-17.95 149.19-17.65L149.19-17.65Q148.09-17.45 146.49-14.95L146.49-14.95Q145.14-12.85 144.64-8.3L144.64-8.3 144.09-6.5Q143.84-5.6 143.34-4.95L143.34-4.95Q143.04-4.6 142.56-4.38 142.09-4.15 141.59-4.15L141.59-4.15Q141.84-4.15 141.39-4.7L141.39-4.7Q140.39-6.05 139.91-6.88 139.44-7.7 139.44-8.75L139.44-8.75Q139.44-9.2 139.59-9.8L139.59-9.8Q139.84-10.55 139.89-11.3L139.89-11.3Q139.99-11.6 140.09-12.18 140.19-12.75 140.34-13.15L140.34-13.15Q140.49-13.6 140.49-14L140.49-14Q140.49-15.1 139.34-16.1L139.34-16.1Q137.64-17.55 137.64-18.75L137.64-18.75Q137.64-20.15 139.84-21.35L139.84-21.35Q140.04-21.45 140.41-21.7 140.79-21.95 141.09-22L141.09-22Q142.14-22.25 142.61-22.95 143.09-23.65 143.44-24.9L143.44-24.9Q144.39-28.2 145.54-32L145.54-32 146.09-33.8Q146.19-34.15 146.64-35.1L146.64-35.1Q148.84-35.15 149.76-33.9 150.69-32.65 150.69-30.65L150.69-30.65Q150.69-30.35 150.59-29.75L150.59-29.75 150.14-27.75 149.84-26.65 149.34-24 151.99-23.8 158.34-23.25 160.04-28.5 160.44-30.2Q161.89-32.1 162.99-31.1L162.99-31.1Q164.04-30.15 164.81-28.98 165.59-27.8 165.59-26.3L165.59-26.3Q165.59-24.85 164.74-22.6L164.74-22.6Q165.14-22.35 165.69-22.18 166.24-22 166.44-21.95L166.44-21.95Q167.99-21.5 168.84-20.9 169.69-20.3 169.89-18.75L169.89-18.75Q169.29-17.8 168.29-17.5 167.29-17.2 165.94-17.35L165.94-17.35Q165.44-17.4 164.64-17.4L164.64-17.4Q163.54-17.4 163.19-16.95 162.84-16.5 162.34-14.85L162.34-14.85 161.74-12.9Q160.54-9 160.01-6.65 159.49-4.3 159.29-1.75L159.29-1.75Q159.29-1.55 159.26-0.93 159.24-0.3 158.94 0.08 158.64 0.45 157.99 0.45L157.99 0.45Q156.34 0.6 155.99-1.3L155.99-1.3Q154.79-3.95 154.79-6.4L154.79-6.4Q154.79-7.45 154.89-8L154.89-8Q155.44-11.2 156.34-16.15L156.34-16.15 156.64-18.3ZM184.53-3.35Q182.98-2.4 180.98-2.4L180.98-2.4Q178.78-2.4 176.76-3.53 174.73-4.65 173.53-6.75 172.33-8.85 172.53-11.55L172.53-11.55 172.78-12.75Q173.08-14.55 173.28-15.4L173.28-15.4Q173.73-17.25 175.08-18 176.43-18.75 178.68-19.2L178.68-19.2Q180.13-19.5 181.53-19.5L181.53-19.5Q185.93-19.5 188.93-16.55L188.93-16.55Q190.53-14.95 190.53-12.65L190.53-12.65Q190.53-10.4 188.88-7.8L188.88-7.8Q186.98-4.85 184.53-3.35L184.53-3.35ZM180.33-16.95Q179.53-15 178.63-12.1L178.63-12.1 178.13-10.6 178.48-10.45Q178.48-10.1 178.51-9.38 178.53-8.65 178.68-8.15L178.68-8.15Q179.23-6.6 179.93-6.25L179.93-6.25Q180.23-6.1 180.81-6.4 181.38-6.7 181.83-7.1L181.83-7.1Q182.53-7.7 184.08-9.6L184.08-9.6Q185.23-10.9 185.23-12.7L185.23-12.7Q185.23-14.25 184.36-15.5 183.48-16.75 181.93-17.2L181.93-17.2Q181.78-17.25 181.38-17.25L181.38-17.25Q180.43-17.25 180.33-16.95L180.33-16.95ZM219.48-13.05Q219.38-14.95 217.88-15.85L217.88-15.85Q216.68-15.55 215.93-15.1 215.18-14.65 214.83-14.23 214.48-13.8 213.58-12.6L213.58-12.6Q213.28-12.2 212.96-11.5 212.63-10.8 212.58-10.65L212.58-10.65Q212.43-10.3 212.43-9.9L212.43-9.9Q212.43-9.6 212.56-8.97 212.68-8.35 212.63-8L212.63-8Q212.58-7.25 212.68-5.65L212.68-5.65 212.73-4.1Q212.73-3.4 212.68-3.05L212.68-3.05Q212.58-2.25 212.18-1.65 211.78-1.05 211.08-1.05L211.08-1.05Q210.83-1.05 210.43-1.2L210.43-1.2Q210.08-1.3 209.28-1.55 208.48-1.8 208.03-2.33 207.58-2.85 207.58-3.85L207.58-3.85Q207.58-6.45 207.08-11.65L207.08-11.65Q206.98-12.2 206.88-13.5L206.88-13.5Q206.83-14.05 206.38-14.35 205.93-14.65 205.28-14.65L205.28-14.65Q204.23-14.65 203.68-14.1L203.68-14.1Q201.38-12.8 200.33-11.15 199.28-9.5 199.28-6.9L199.28-6.9 199.33-5.2Q199.33-3.55 198.48-2.15L198.48-2.15Q198.23-1.7 197.46-1.38 196.68-1.05 196.13-1.15L196.13-1.15Q195.63-1.2 195.11-1.83 194.58-2.45 194.58-2.95L194.58-2.95Q194.43-7.15 194.43-11.3L194.43-11.3Q194.43-15.05 194.53-16.9L194.53-16.9Q194.58-17.85 195.18-18.4 195.78-18.95 196.63-18.95L196.63-18.95Q197.73-18.95 198.58-18.15L198.58-18.15Q199.03-17.3 199.33-16.93 199.63-16.55 199.98-16.55L199.98-16.55Q200.28-16.55 200.68-16.88 201.08-17.2 201.78-17.95L201.78-17.95Q203.43-19.75 205.23-19.75L205.23-19.75Q207.18-19.75 209.93-17.8L209.93-17.8Q210.13-17.65 210.48-17.38 210.83-17.1 211.08-17.1L211.08-17.1Q211.43-17.1 212.18-17.9L212.18-17.9Q214.98-20.5 219.28-20.75L219.28-20.75Q220.63-20.8 222.01-19.73 223.38-18.65 223.73-17.15L223.73-17.15Q224.33-14.6 224.58-11.15L224.58-11.15Q224.88-5.95 224.83-3.35L224.83-3.35Q224.78-2.15 224.18-1.48 223.58-0.8 222.63-0.8L222.63-0.8Q221.88-0.8 221.03-1.25L221.03-1.25Q220.68-1.4 220.38-1.8 220.08-2.2 220.08-2.5L220.08-2.5 219.78-7.8Q219.73-8.65 219.68-9.98 219.63-11.3 219.48-13.05L219.48-13.05ZM238.93-7.8Q238.43-7.5 237.48-7.5L237.48-7.5Q237.13-7.5 236.63-7.55 236.13-7.6 235.78-7.55L235.78-7.55Q236.18-5.9 237.68-4.88 239.18-3.85 241.03-3.85L241.03-3.85Q242.63-3.85 243.88-4.55L243.88-4.55Q245.73-5.5 247.08-6.8L247.08-6.8Q248.03-7.75 248.88-7.75L248.88-7.75Q249.43-7.75 249.83-7.2L249.83-7.2Q250.23-6.55 250.23-5.6L250.23-5.6Q250.23-4.6 249.83-4.05L249.83-4.05Q248.53-2.05 246.45-1.3 244.38-0.55 241.63-0.55L241.63-0.55Q238.78-0.55 236.13-1.8 233.48-3.05 231.6-5.23 229.73-7.4 229.13-10.05L229.13-10.05Q228.73-11.6 228.73-13.1L228.73-13.1Q228.73-15.45 230.05-16.9 231.38-18.35 234.33-19.65L234.33-19.65Q237.03-20.8 239.33-20.8L239.33-20.8Q240.98-20.8 242.53-20.3L242.53-20.3Q247.33-18.8 247.33-16.2L247.33-16.2Q247.33-14.55 245.38-12.2L245.38-12.2Q244.43-11.1 243.13-10.25 241.83-9.4 240.6-8.72 239.38-8.05 238.93-7.8L238.93-7.8ZM241.03-17.05Q240.98-17.3 240.65-17.48 240.33-17.65 240.28-17.7L240.28-17.7Q238.93-17.8 237.53-16.93 236.13-16.05 235.2-14.7 234.28-13.35 234.28-12.1L234.28-12.1 234.33-11.7Q234.38-11.5 234.85-11.2 235.33-10.9 235.43-11L235.43-11Q238.98-13.65 240.78-15.25L240.78-15.25Q241.08-15.55 241.08-16.35L241.08-16.35Q241.08-16.85 241.03-17.05L241.03-17.05ZM257.48 1.1Q253.28 1.1 252.13-2.5L252.13-2.5Q252.53-2.5 253.2-2.48 253.88-2.45 254.33-2.35L254.33-2.35Q255.03-2.25 255.33-2.25L255.33-2.25Q257.58-2.25 259.08-4.25L259.08-4.25Q260.13-5.7 260.13-7.2L260.13-7.2Q260.13-8.2 259.63-9.15L259.63-9.15Q258.53-11.1 256.93-13.45L256.93-13.45Q255.88-15 255.03-16.4L255.03-16.4Q254.03-18 254.03-19.95L254.03-19.95Q254.03-21.75 255.05-23.13 256.08-24.5 258.08-24.85L258.08-24.85 259.68-25.15Q262.28-25.65 263.58-25.65L263.58-25.65Q265.73-25.65 267.38-24.65L267.38-24.65Q267.73-24.4 268.1-23.78 268.48-23.15 268.68-22.8L268.68-22.8Q268.33-22.65 267.7-22.33 267.08-22 266.63-21.95L266.63-21.95Q265.93-21.85 264.53-21.85L264.53-21.85Q263.18-21.85 262.48-21.8L262.48-21.8Q260.88-21.65 259.95-20.73 259.03-19.8 259.03-18.5L259.03-18.5Q259.03-17.5 259.63-16.45L259.63-16.45Q260.98-14.2 263.38-11.3L263.38-11.3Q265.18-9.05 265.18-6.65L265.18-6.65Q265.18-5.35 264.58-3.9L264.58-3.9Q262.53 1.1 257.48 1.1L257.48 1.1Z" opacity="1" transform="matrix(1,0,0,1,0,0)" fill="#89939e" class="undefined-text-0" data-fill-palette-color="primary" id="text-0"></path></svg></g></svg></g></svg></g></svg></g><g><svg viewBox="0 0 87.87130814205007 87.81078888054091" height="87.81078888054091" width="87.87130814205007"><g><svg xmlns="http://www.w3.org/2000/svg" xmlns:xlink="http://www.w3.org/1999/xlink" version="1.1" x="0" y="0" viewBox="8.281929969787598 8.310399055480957 83.43607330322266 83.37860870361328" enable-background="new 0 0 100 100" xml:space="preserve" height="87.81078888054091" width="87.87130814205007" class="icon-icon-0" data-fill-palette-color="accent" id="icon-0"><g fill="#89939e" data-fill-palette-color="accent"><g fill="#89939e" data-fill-palette-color="accent"><path fill="#89939e" d="M81.268 79.414c-0.011-0.008-0.02-0.02-0.03-0.025C81.237 79.389 81.252 79.395 81.268 79.414z" data-fill-palette-color="accent"></path></g><g fill="#89939e" data-fill-palette-color="accent"><path fill="#89939e" d="M79.44 81.234c0.097 0.078 0.657-0.246 1.117-0.707 0.47-0.473 0.787-1.02 0.71-1.113 10.008 10.01 10.451 12.275 10.451 12.275S89.454 91.242 79.44 81.234z" data-fill-palette-color="accent"></path></g><g fill="#89939e" data-fill-palette-color="accent"><path fill="#89939e" d="M79.417 81.211c0.009 0.008 0.017 0.016 0.023 0.023C79.426 81.223 79.417 81.211 79.417 81.211z" data-fill-palette-color="accent"></path></g></g><g fill="#89939e" data-fill-palette-color="accent"><path fill="#89939e" d="M62.837 58.586l15.95 15.953c-0.275 0.713-0.789 1.789-1.61 2.607-0.821 0.822-1.896 1.334-2.607 1.611L58.616 62.807c1.073-0.65 1.972-1.514 2.325-1.873C61.313 60.566 62.186 59.66 62.837 58.586M61.854 55.479c1.238 1.238-1.965 4.381-1.965 4.381s-2.205 2.25-3.649 2.25c-0.278 0-0.529-0.084-0.73-0.283L74.16 80.475c0 0 2.404-0.592 4.08-2.264 1.672-1.676 2.265-4.08 2.265-4.08L61.854 55.479 61.854 55.479z" data-fill-palette-color="accent"></path></g><g fill="#89939e" data-fill-palette-color="accent"><path fill="#89939e" d="M57.484 57.445c0 0-2.043 2.479-3.531 1.846C39.239 44.477 24.458 27.46 25.997 25.923c1.238-1.242 18.422 13.379 33.325 28.003C59.631 55.736 57.484 57.445 57.484 57.445z" data-fill-palette-color="accent"></path></g><g fill="#89939e" data-fill-palette-color="accent"><g fill="#89939e" data-fill-palette-color="accent"><path fill="#89939e" d="M48.8 38.763c0 0-7.384-25.309-10.48-28.43-6.499-6.547-20.44 4.295-13.444 11.29 0 0 2.201-0.656 8.737 4.18C38.133 29.146 48.8 38.763 48.8 38.763z" data-fill-palette-color="accent"></path></g><g fill="#89939e" data-fill-palette-color="accent"><path fill="#89939e" d="M38.734 48.829c0 0-25.312-7.382-28.43-10.48-6.546-6.5 4.296-20.44 11.292-13.444 0 0-0.656 2.2 4.178 8.74C29.117 38.161 38.734 48.829 38.734 48.829z" data-fill-palette-color="accent"></path></g><g fill="#89939e" data-fill-palette-color="accent"><path fill="#89939e" d="M16.797 16.827c0.553-0.553 1.515-0.97 3.572 1.088 0 0-0.502 1.099 0.431 2.914-1.815-0.932-2.916-0.431-2.916-0.431C15.888 18.403 16.245 17.378 16.797 16.827z" data-fill-palette-color="accent"></path></g></g></svg></g></svg></g></svg></g></svg><rect width="395.52" height="67.2675025300415" fill="none" stroke="none" visibility="hidden"></rect></g></svg></g></svg>